HIERARCHY
ROOT Hips
{
  OFFSET 377.763 88.2609 174.383
  CHANNELS 6 Xposition Yposition Zposition Zrotation Xrotation Yrotation
  JOINT RightUpLeg
  {
    OFFSET -9.30536 -1.56319 -0.0308412
    CHANNELS 3 Zrotation Xrotation Yrotation
    JOINT RightLeg
    {
      OFFSET -0.0509473 -41.8867 0.0408735
      CHANNELS 3 Zrotation Xrotation Yrotation
      JOINT RightFoot
      {
        OFFSET -0.135761 -42.7852 -0.897951
        CHANNELS 3 Zrotation Xrotation Yrotation
        End Site
        {
          OFFSET 0 -7.69 17.5
        }
      }
    }
  }
  JOINT LeftUpLeg
  {
    OFFSET 9.25165 -1.62789 -0.00729124
    CHANNELS 3 Zrotation Xrotation Yrotation
    JOINT LeftLeg
    {
      OFFSET 0.024936 -41.8804 0.00207043
      CHANNELS 3 Zrotation Xrotation Yrotation
      JOINT LeftFoot
      {
        OFFSET 0.245063 -40.7505 0.529473
        CHANNELS 3 Zrotation Xrotation Yrotation
        End Site
        {
          OFFSET 0 -7.69 17.5
        }
      }
    }
  }
  JOINT Spine
  {
    OFFSET 0.0381636 14.2969 0.0214663
    CHANNELS 3 Zrotation Xrotation Yrotation
    JOINT Spine1
    {
      OFFSET 0.0273681 9.71499 0.0100001
      CHANNELS 3 Zrotation Xrotation Yrotation
      JOINT Spine2
      {
        OFFSET 0.029022 10.1215 -0.000399631
        CHANNELS 3 Zrotation Xrotation Yrotation
        JOINT Spine3
        {
          OFFSET 0.0290531 9.71322 0.0107928
          CHANNELS 3 Zrotation Xrotation Yrotation
          JOINT Neck
          {
            OFFSET 0.0830829 10.3832 0.0498053
            CHANNELS 3 Zrotation Xrotation Yrotation
            JOINT Head
            {
              OFFSET 0.0700972 9.47827 0.0499309
              CHANNELS 3 Zrotation Xrotation Yrotation
              End Site
              {
                OFFSET 0 15.95 0
              }
            }
          }
          JOINT RightShoulder
          {
            OFFSET -3.16088 6.93633 0.0290789
            CHANNELS 3 Zrotation Xrotation Yrotation
            JOINT RightArm
            {
              OFFSET -12.7509 0.028765 0.0682708
              CHANNELS 3 Zrotation Xrotation Yrotation
              JOINT RightForeArm
              {
                OFFSET -26.5067 -0.0728143 0.13822
                CHANNELS 3 Zrotation Xrotation Yrotation
                JOINT RightHand
                {
                  OFFSET -25.9897 -0.0664148 0.00141744
                  CHANNELS 3 Zrotation Xrotation Yrotation
                  JOINT RightHandThumb1
                  {
                    OFFSET -2.48905 0.190105 3.12053
                    CHANNELS 3 Zrotation Xrotation Yrotation
                    JOINT RightHandThumb2
                    {
                      OFFSET -3.68274 0 0
                      CHANNELS 3 Zrotation Xrotation Yrotation
                      JOINT RightHandThumb3
                      {
                        OFFSET -2.55832 0 0
                        CHANNELS 3 Zrotation Xrotation Yrotation
                        End Site
                        {
                          OFFSET -2.194 0 0
                        }
                      }
                    }
                  }
                  JOINT RightInHandIndex
                  {
                    OFFSET -3.22368 0.508421 1.97842
                    CHANNELS 3 Zrotation Xrotation Yrotation
                    JOINT RightHandIndex1
                    {
                      OFFSET -5.21684 -0.091368 0.999158
                      CHANNELS 3 Zrotation Xrotation Yrotation
                      JOINT RightHandIndex2
                      {
                        OFFSET -3.61937 0 0
                        CHANNELS 3 Zrotation Xrotation Yrotation
                        JOINT RightHandIndex3
                        {
                          OFFSET -2.0521 0 0
                          CHANNELS 3 Zrotation Xrotation Yrotation
                          End Site
                          {
                            OFFSET -1.805 0 0
                          }
                        }
                      }
                    }
                  }
                  JOINT RightInHandMiddle
                  {
                    OFFSET -3.38211 0.517263 0.756737
                    CHANNELS 3 Zrotation Xrotation Yrotation
                    JOINT RightHandMiddle1
                    {
                      OFFSET -5.17411 -0.084 0.313895
                      CHANNELS 3 Zrotation Xrotation Yrotation
                      JOINT RightHandMiddle2
                      {
                        OFFSET -3.94947 0 0
                        CHANNELS 3 Zrotation Xrotation Yrotation
                        JOINT RightHandMiddle3
                        {
                          OFFSET -2.47579 0 0
                          CHANNELS 3 Zrotation Xrotation Yrotation
                          End Site
                          {
                            OFFSET -1.975 0 0
                          }
                        }
                      }
                    }
                  }
                  JOINT RightInHandRing
                  {
                    OFFSET -3.36516 0.537895 -0.128947
                    CHANNELS 3 Zrotation Xrotation Yrotation
                    JOINT RightHandRing1
                    {
                      OFFSET -4.63474 -0.022105 -0.478947
                      CHANNELS 3 Zrotation Xrotation Yrotation
                      JOINT RightHandRing2
                      {
                        OFFSET -3.44238 0 0
                        CHANNELS 3 Zrotation Xrotation Yrotation
                        JOINT RightHandRing3
                        {
                          OFFSET -2.3881 0 0
                          CHANNELS 3 Zrotation Xrotation Yrotation
                          End Site
                          {
                            OFFSET -1.857 0 0
                          }
                        }
                      }
                    }
                  }
                  JOINT RightInHandPinky
                  {
                    OFFSET -3.16105 0.469368 -1.20179
                    CHANNELS 3 Zrotation Xrotation Yrotation
                    JOINT RightHandPinky1
                    {
                      OFFSET -4.14105 -0.022105 -1.09053
                      CHANNELS 3 Zrotation Xrotation Yrotation
                      JOINT RightHandPinky2
                      {
                        OFFSET -2.75653 0 0
                        CHANNELS 3 Zrotation Xrotation Yrotation
                        JOINT RightHandPinky3
                        {
                          OFFSET -1.74189 0 0
                          CHANNELS 3 Zrotation Xrotation Yrotation
                          End Site
                          {
                            OFFSET -1.645 0 0
                          }
                        }
                      }
                    }
                  }
                }
              }
            }
          }
          JOINT LeftShoulder
          {
            OFFSET 3.23403 6.91572 -0.0126821
            CHANNELS 3 Zrotation Xrotation Yrotation
            JOINT LeftArm
            {
              OFFSET 12.8488 -0.0444641 -0.0528339
              CHANNELS 3 Zrotation Xrotation Yrotation
              JOINT LeftForeArm
              {
                OFFSET 26.4942 -0.0237746 -0.09002
                CHANNELS 3 Zrotation Xrotation Yrotation
                JOINT LeftHand
                {
                  OFFSET 25.9989 -0.00653758 -0.026747
                  CHANNELS 3 Zrotation Xrotation Yrotation
                  JOINT LeftHandThumb1
                  {
                    OFFSET 2.48905 0.190105 3.12053
                    CHANNELS 3 Zrotation Xrotation Yrotation
                    JOINT LeftHandThumb2
                    {
                      OFFSET 3.68274 0 0
                      CHANNELS 3 Zrotation Xrotation Yrotation
                      JOINT LeftHandThumb3
                      {
                        OFFSET 2.55832 0 0
                        CHANNELS 3 Zrotation Xrotation Yrotation
                        End Site
                        {
                          OFFSET 2.194 0 0
                        }
                      }
                    }
                  }
                  JOINT LeftInHandIndex
                  {
                    OFFSET 3.22368 0.508421 1.97842
                    CHANNELS 3 Zrotation Xrotation Yrotation
                    JOINT LeftHandIndex1
                    {
                      OFFSET 5.21684 -0.091368 0.999158
                      CHANNELS 3 Zrotation Xrotation Yrotation
                      JOINT LeftHandIndex2
                      {
                        OFFSET 3.61937 0 0
                        CHANNELS 3 Zrotation Xrotation Yrotation
                        JOINT LeftHandIndex3
                        {
                          OFFSET 2.0521 0 0
                          CHANNELS 3 Zrotation Xrotation Yrotation
                          End Site
                          {
                            OFFSET 1.805 0 0
                          }
                        }
                      }
                    }
                  }
                  JOINT LeftInHandMiddle
                  {
                    OFFSET 3.38211 0.517263 0.756737
                    CHANNELS 3 Zrotation Xrotation Yrotation
                    JOINT LeftHandMiddle1
                    {
                      OFFSET 5.17411 -0.084 0.313895
                      CHANNELS 3 Zrotation Xrotation Yrotation
                      JOINT LeftHandMiddle2
                      {
                        OFFSET 3.94947 0 0
                        CHANNELS 3 Zrotation Xrotation Yrotation
                        JOINT LeftHandMiddle3
                        {
                          OFFSET 2.47579 0 0
                          CHANNELS 3 Zrotation Xrotation Yrotation
                          End Site
                          {
                            OFFSET 1.975 0 0
                          }
                        }
                      }
                    }
                  }
                  JOINT LeftInHandRing
                  {
                    OFFSET 3.36516 0.537895 -0.128947
                    CHANNELS 3 Zrotation Xrotation Yrotation
                    JOINT LeftHandRing1
                    {
                      OFFSET 4.63474 -0.022105 -0.478947
                      CHANNELS 3 Zrotation Xrotation Yrotation
                      JOINT LeftHandRing2
                      {
                        OFFSET 3.44238 0 0
                        CHANNELS 3 Zrotation Xrotation Yrotation
                        JOINT LeftHandRing3
                        {
                          OFFSET 2.3881 0 0
                          CHANNELS 3 Zrotation Xrotation Yrotation
                          End Site
                          {
                            OFFSET 1.857 0 0
                          }
                        }
                      }
                    }
                  }
                  JOINT LeftInHandPinky
                  {
                    OFFSET 3.16105 0.469368 -1.20179
                    CHANNELS 3 Zrotation Xrotation Yrotation
                    JOINT LeftHandPinky1
                    {
                      OFFSET 4.14105 -0.022105 -1.09053
                      CHANNELS 3 Zrotation Xrotation Yrotation
                      JOINT LeftHandPinky2
                      {
                        OFFSET 2.75653 0 0
                        CHANNELS 3 Zrotation Xrotation Yrotation
                        JOINT LeftHandPinky3
                        {
                          OFFSET 1.74189 0 0
                          CHANNELS 3 Zrotation Xrotation Yrotation
                          End Site
                          {
                            OFFSET 1.645 0 0
                          }
                        }
                      }
                    }
                  }
                }
              }
            }
          }
        }
      }
    }
  }
}
MOTION
Frames: 3
Frame Time: 0.00833333
6.000701813820384132e+02 3.558664187057643535e-01 1.758508544034491639e-01 -1.183145253507331462e+00 -9.322526538966422471e-01 6.367439978916508148e-01 -3.005674280515719943e+00 -8.130085705859102507e-01 -2.262187348010349819e+00 3.207272756645039857e-01 1.348564765847631852e+00 -5.995944852417990356e-01 1.720611205815492095e+00 -8.009636054850883813e-01 -7.738555387132082242e-01 -2.302613927300536378e+00 -3.560357309385900892e-01 -1.506027490854466633e+00 1.493332992624900379e+00 -5.916197196199285413e-01 -1.461473392852698172e+00 1.221846868666214281e+00 1.251122690600223741e+00 1.653078729399126034e+00 -3.651945960555141313e-01 9.259652382793739367e-01 1.264665958387189981e-01 -6.806125386083772266e-02 2.358689796176804132e-01 6.123433570450820262e-02 -1.099606624199115923e-01 3.540722139893169307e-01 1.403411128596290802e-01 -1.845775579112612919e-02 -5.259629032187693176e-02 -1.371446647420407061e-01 -4.241134310915906092e-01 2.662650303614234049e-01 -3.319624468869273759e+00 -2.512329980116021488e-01 -6.666317390001713639e-01 -8.916604491851450875e-01 -1.384657893977962573e+00 4.340000652862022190e-01 7.340551258275479496e-01 -1.080720333394808774e+00 8.871897887002241356e-01 -2.427726536989706752e+00 2.131400229668149571e+00 2.632414626243322342e-01 -1.126834153566478847e+01 -3.100662193357788254e-01 1.935468781725617315e+00 -3.067558210184376133e+00 0.000000000000000000e+00 0.000000000000000000e+00 0.000000000000000000e+00 -1.106495597911593243e-15 -6.377026743511540959e-15 0.000000000000000000e+00 3.093246194427004095e-16 -4.496540461474053861e-15 0.000000000000000000e+00 -1.214306172074430548e-15 2.596047677017520910e-15 -1.936101841598544296e-15 0.000000000000000000e+00 0.000000000000000000e+00 0.000000000000000000e+00 0.000000000000000000e+00 3.869233624565632774e-15 -9.910326310471077091e-16 0.000000000000000000e+00 5.921563678706417656e-16 6.203349037899240817e-15 -1.214306172074430548e-15 2.596047677017520910e-15 -1.936101841598544296e-15 0.000000000000000000e+00 2.610399116416101307e-15 -1.067568839031671979e-15 0.000000000000000000e+00 3.263620840805356988e-15 -2.477157012487330845e-15 0.000000000000000000e+00 -3.419654420376644651e-15 -6.023155565786367955e-16 -1.214306172074430548e-15 2.596047677017520910e-15 -1.936101841598544296e-15 0.000000000000000000e+00 0.000000000000000000e+00 0.000000000000000000e+00 0.000000000000000000e+00 -3.477547304995649795e-15 9.509897173592279181e-16 0.000000000000000000e+00 -4.388112071840470125e-16 2.178329035502069946e-15 -1.214306172074430548e-15 2.596047677017520910e-15 -1.936101841598544296e-15 0.000000000000000000e+00 0.000000000000000000e+00 0.000000000000000000e+00 0.000000000000000000e+00 1.488539208288406196e-15 -2.277043310498999699e-15 0.000000000000000000e+00 5.089188876299913571e-16 -5.574696672462619286e-16 2.022523276274337256e+00 -7.959957264732578919e-01 9.702174021388187963e-01 -3.573090608390593115e+00 1.036940049594797353e+00 2.570423020677017334e+00 -1.753989711067202251e+01 -5.851646865907454753e+00 -1.026487193017441513e+01 1.784715565618729682e+00 -1.767951849926419960e+00 2.961093954747967771e+00 0.000000000000000000e+00 0.000000000000000000e+00 0.000000000000000000e+00 5.938508007662062300e-16 5.114206553203620500e-16 0.000000000000000000e+00 -2.172475566733492811e-15 9.943760975518856603e-16 0.000000000000000000e+00 -2.289201506986432547e-15 2.744763070807927174e-15 1.546250437500788220e-15 0.000000000000000000e+00 0.000000000000000000e+00 0.000000000000000000e+00 0.000000000000000000e+00 -1.582587449055470225e-15 1.151470973383760690e-14 0.000000000000000000e+00 -3.583476657255070338e-15 8.856006899616437562e-15 -2.289201506986432547e-15 2.744763070807927174e-15 1.546250437500788220e-15 0.000000000000000000e+00 -2.343077651985122154e-15 9.116636594111197113e-15 0.000000000000000000e+00 -2.343575869207578241e-15 1.023189735647756739e-14 0.000000000000000000e+00 -3.343753304312120141e-15 9.156307082999920889e-15 -2.289201506986432547e-15 2.744763070807927174e-15 1.546250437500788220e-15 0.000000000000000000e+00 0.000000000000000000e+00 0.000000000000000000e+00 0.000000000000000000e+00 2.410767377476583456e-15 9.269982595100767846e-15 0.000000000000000000e+00 -3.590709961623921777e-15 1.052383977121995473e-14 -2.289201506986432547e-15 2.744763070807927174e-15 1.546250437500788220e-15 0.000000000000000000e+00 0.000000000000000000e+00 0.000000000000000000e+00 0.000000000000000000e+00 -3.022745348496975932e-15 9.203148123470228320e-15 0.000000000000000000e+00 2.348029810164313464e-15 8.579631469715008098e-15
6.000350851854634584e+02 3.763794167989440442e-01 1.648376841329394493e-01 -1.235850249719081528e+00 -1.049402199365738753e+00 5.100568353411688571e-01 -2.995321571942493932e+00 -5.789309403615852112e-01 -2.209547624528673371e+00 3.994268761699414361e-01 1.270829554916518278e+00 -6.113295951807362627e-01 1.707608991058410464e+00 -7.540748428548371685e-01 -6.394822474869328310e-01 -2.315231639582876255e+00 -6.682865010332716960e-02 -1.394862066718428606e+00 1.294848492986778954e+00 -6.547682581674568736e-01 -1.317606175043644079e+00 1.183443715054963707e+00 1.186258322544480048e+00 1.571581288283511846e+00 -4.008340118603174185e-01 9.147782821936644160e-01 2.455622052402752220e-01 -7.425119796932375116e-02 2.289645449339175187e-01 9.192340259313935835e-02 -1.220295139949499896e-01 3.392819750108839183e-01 1.893179343643048296e-01 -1.468072710633828992e-02 -4.908792793546036537e-02 -1.392180441351637266e-01 -4.160590497432180568e-01 2.639663838759052639e-01 -3.052920762247446351e+00 -1.790870889007756817e-01 -5.271549012916005861e-01 -1.071290080143208368e+00 -1.360605536296392692e+00 5.046332951642158449e-01 8.009194080985402309e-01 -1.269080433536479369e+00 6.176391610705210811e-01 -2.193427573271629072e+00 2.249318030932993651e+00 5.143215271018218848e-01 -1.147361214789182782e+01 -2.302854799970114885e-01 2.087727385783992862e+00 -3.346468670927479572e+00 0.000000000000000000e+00 0.000000000000000000e+00 0.000000000000000000e+00 -1.536602775472781749e-15 -6.595938652605105752e-15 0.000000000000000000e+00 2.669456089366530994e-16 -4.691468192956816352e-15 0.000000000000000000e+00 -1.127655465290210385e-15 2.833591905684773088e-15 -1.973254893747476802e-15 0.000000000000000000e+00 0.000000000000000000e+00 0.000000000000000000e+00 0.000000000000000000e+00 3.898369335677488339e-15 -7.935808996687084014e-16 0.000000000000000000e+00 6.076547600544959453e-16 6.058581294398564255e-15 -1.127655465290210385e-15 2.833591905684773088e-15 -1.973254893747476802e-15 0.000000000000000000e+00 2.283510448526858092e-15 -1.011388427865076879e-15 0.000000000000000000e+00 3.291530541415926798e-15 -2.269497715181427276e-15 0.000000000000000000e+00 -3.431576467312884447e-15 -7.907799077372542757e-16 -1.127655465290210385e-15 2.833591905684773088e-15 -1.973254893747476802e-15 0.000000000000000000e+00 0.000000000000000000e+00 0.000000000000000000e+00 0.000000000000000000e+00 -3.666455106906715577e-15 1.042388703195607686e-15 0.000000000000000000e+00 -3.612351385241533791e-16 2.353938218327554603e-15 -1.127655465290210385e-15 2.833591905684773088e-15 -1.973254893747476802e-15 0.000000000000000000e+00 0.000000000000000000e+00 0.000000000000000000e+00 0.000000000000000000e+00 1.780470948744630169e-15 -2.339890810642795121e-15 0.000000000000000000e+00 3.990253252630946286e-16 -3.563234093340498530e-16 2.014813865583665820e+00 -8.064813315420725770e-01 9.979191597030394600e-01 -3.624931591613128390e+00 1.072117155203847982e+00 2.553303807257841562e+00 -1.785651179225681062e+01 -6.041303767257533153e+00 -1.081997206091305408e+01 1.894696053603351027e+00 -1.783425102015753216e+00 2.845732761596366345e+00 0.000000000000000000e+00 0.000000000000000000e+00 0.000000000000000000e+00 8.474525721337817035e-16 6.085832447667546643e-16 0.000000000000000000e+00 -1.960098950909719752e-15 9.763149801117431068e-16 0.000000000000000000e+00 -2.230417370614429700e-15 2.843309266306124281e-15 1.529375410386263033e-15 0.000000000000000000e+00 0.000000000000000000e+00 0.000000000000000000e+00 0.000000000000000000e+00 -1.066514388250114866e-15 1.149068433128960929e-14 0.000000000000000000e+00 -3.416837108181546486e-15 8.568847222565434929e-15 -2.230417370614429700e-15 2.843309266306124281e-15 1.529375410386263033e-15 0.000000000000000000e+00 -2.320456350567230936e-15 9.004015929130623875e-15 0.000000000000000000e+00 -2.424557236487899547e-15 1.020339707148463843e-14 0.000000000000000000e+00 -3.485727351080690162e-15 9.028006498340783715e-15 -2.230417370614429700e-15 2.843309266306124281e-15 1.529375410386263033e-15 0.000000000000000000e+00 0.000000000000000000e+00 0.000000000000000000e+00 0.000000000000000000e+00 2.459103175264236734e-15 9.223449626825489304e-15 0.000000000000000000e+00 -3.477597157626512055e-15 1.025405598057749110e-14 -2.230417370614429700e-15 2.843309266306124281e-15 1.529375410386263033e-15 0.000000000000000000e+00 0.000000000000000000e+00 0.000000000000000000e+00 0.000000000000000000e+00 -3.309918446641779520e-15 9.241943457721986465e-15 0.000000000000000000e+00 2.237361780678794504e-15 8.387481763372208444e-15
5.999971764020551745e+02 3.963165365125722595e-01 1.530386418254470748e-01 -1.284361193711576199e+00 -1.166957532433576361e+00 3.812097260118327280e-01 -2.975525081555826734e+00 -3.363980082511130454e-01 -2.153526362384770465e+00 4.780574235674510120e-01 1.183013456179935030e+00 -6.267556879846927220e-01 1.676698995231133527e+00 -7.022518831695843122e-01 -4.872225265370037084e-01 -2.317744033412053817e+00 2.347261666227110632e-01 -1.279444099122055256e+00 1.084174524715904031e+00 -7.174948076345905035e-01 -1.170329791451085066e+00 1.150444693551664344e+00 1.102057736352842543e+00 1.498008314443903588e+00 -4.353165101669133064e-01 9.012745130936306026e-01 3.642358362767582070e-01 -8.007610784367763523e-02 2.215778284938129949e-01 1.223089430438697861e-01 -1.335398373541328287e-01 3.239498212081456385e-01 2.375921969760385610e-01 -1.080494359333026774e-02 -4.547526427015994438e-02 -1.409180612621105111e-01 -4.072021148212172093e-01 2.634954107353422725e-01 -2.776527905768506610e+00 -1.031606811537768287e-01 -3.851870648630436045e-01 -1.251353302267793621e+00 -1.333903016344890835e+00 5.788444102110850142e-01 8.589270824501471502e-01 -1.449903463938357007e+00 3.548904273107773566e-01 -1.933812748072997190e+00 2.353194914999926279e+00 7.683346799244357150e-01 -1.164720774368072931e+01 -1.470944136078771447e-01 2.238797003230666327e+00 -3.623342862530030128e+00 0.000000000000000000e+00 0.000000000000000000e+00 0.000000000000000000e+00 -1.931361010006146909e-15 -6.742119370501473459e-15 0.000000000000000000e+00 2.767389420335714742e-16 -4.867416218855556499e-15 0.000000000000000000e+00 -1.001260621869977135e-15 3.043760561172029855e-15 -2.002733646244437386e-15 0.000000000000000000e+00 0.000000000000000000e+00 0.000000000000000000e+00 0.000000000000000000e+00 3.869591908638851553e-15 -6.065642218261360510e-16 0.000000000000000000e+00 6.496138743621888115e-16 5.926393066416972356e-15 -1.001260621869977135e-15 3.043760561172029855e-15 -2.002733646244437386e-15 0.000000000000000000e+00 1.981899292841380196e-15 -9.543432747595142191e-16 0.000000000000000000e+00 3.260222420757556450e-15 -2.093365765389987891e-15 0.000000000000000000e+00 -3.403899258409764970e-15 -9.653663116172956290e-16 -1.001260621869977135e-15 3.043760561172029855e-15 -2.002733646244437386e-15 0.000000000000000000e+00 0.000000000000000000e+00 0.000000000000000000e+00 0.000000000000000000e+00 -3.805054101562502932e-15 1.091788312991290587e-15 0.000000000000000000e+00 -2.953281654464760377e-16 2.556991013197340396e-15 -1.001260621869977135e-15 3.043760561172029855e-15 -2.002733646244437386e-15 0.000000000000000000e+00 0.000000000000000000e+00 0.000000000000000000e+00 0.000000000000000000e+00 2.030651968112290576e-15 -2.393924528422822927e-15 0.000000000000000000e+00 3.324493176157203067e-16 -1.450156466932435460e-16 1.998642480216865858e+00 -8.169694455311564685e-01 1.021170315146487040e+00 -3.669214232208703130e+00 1.108690118022420457e+00 2.525802706717450885e+00 -1.815285977464911582e+01 -6.230347400112214551e+00 -1.137670931281680531e+01 2.005688395418748549e+00 -1.794906503059876535e+00 2.717704498973216864e+00 0.000000000000000000e+00 0.000000000000000000e+00 0.000000000000000000e+00 1.113763681462826887e-15 7.160823369034676880e-16 0.000000000000000000e+00 -1.669429951195375525e-15 9.813252123183468174e-16 0.000000000000000000e+00 -2.141675605566161258e-15 2.878075563908586906e-15 1.492044708202583606e-15 0.000000000000000000e+00 0.000000000000000000e+00 0.000000000000000000e+00 0.000000000000000000e+00 -5.319568962682234134e-16 1.141733180615518598e-14 0.000000000000000000e+00 -3.257959056055202794e-15 8.254895081495199258e-15 -2.141675605566161258e-15 2.878075563908586906e-15 1.492044708202583606e-15 0.000000000000000000e+00 -2.258768618135405442e-15 8.892231893649421408e-15 0.000000000000000000e+00 -2.514144610627518561e-15 1.008944669331592761e-14 0.000000000000000000e+00 -3.627430626357994608e-15 8.859701924173485606e-15 -2.141675605566161258e-15 2.878075563908586906e-15 1.492044708202583606e-15 0.000000000000000000e+00 0.000000000000000000e+00 0.000000000000000000e+00 0.000000000000000000e+00 2.491859475129306848e-15 9.161787826658380983e-15 0.000000000000000000e+00 -3.340316955925569286e-15 1.000008377968703747e-14 -2.141675605566161258e-15 2.878075563908586906e-15 1.492044708202583606e-15 0.000000000000000000e+00 0.000000000000000000e+00 0.000000000000000000e+00 0.000000000000000000e+00 -3.541686588305871499e-15 9.303954595512116676e-15 0.000000000000000000e+00 2.057674432650209920e-15 8.145092321439103531e-15
